<svg width="93" height="109" viewBox="0 0 93 109" fill="none" xmlns="http://www.w3.org/2000/svg">
<path d="M0 39.8928C0 17.8606 17.8606 0 39.8928 0H45.8325C71.1451 0 91.665 20.5199 91.665 45.8325V79.7856H39.8928C17.8606 79.7856 0 61.925 0 39.8928Z" fill="url(#paint0_linear_707_566)"/>
<path d="M22.249 40.794C22.249 29.2178 31.6334 19.8334 43.2097 19.8334H45.8327C58.8577 19.8334 69.4165 30.3922 69.4165 43.4171V60.791C69.4165 61.3232 68.985 61.7547 68.4528 61.7547H43.2096C31.6334 61.7547 22.249 52.3703 22.249 40.794Z" fill="white"/>
<rect x="64.5215" y="61.755" width="27.1435" height="31.1029" fill="#7266FE"/>
<path d="M64.5215 79.785H79.2516C86.8446 79.785 92.9999 85.9404 92.9999 93.5334C92.9999 101.126 86.8446 107.282 79.2516 107.282H78.7607C70.8966 107.282 64.5215 100.907 64.5215 93.0425V79.785Z" fill="white"/>
<path d="M64.5215 82.4907H78.5928C85.8124 82.4907 91.665 88.3433 91.665 95.5629C91.665 102.783 85.8124 108.635 78.5928 108.635H78.0933C70.5978 108.635 64.5215 102.559 64.5215 95.0634V82.4907Z" fill="url(#paint1_linear_707_566)"/>
<defs>
<linearGradient id="paint0_linear_707_566" x1="17.4293" y1="-1.296e-07" x2="69.1839" y2="58.8456" gradientUnits="userSpaceOnUse">
<stop stop-color="#03EFB6" stop-opacity="0.76"/>
<stop offset="1" stop-color="#7266FE"/>
</linearGradient>
<linearGradient id="paint1_linear_707_566" x1="67.7529" y1="112.557" x2="78.9572" y2="83.883" gradientUnits="userSpaceOnUse">
<stop stop-color="#03EFB6" stop-opacity="0.78"/>
<stop offset="1" stop-color="#7266FE"/>
</linearGradient>
</defs>
</svg>
